<mxfile host="app.diagrams.net" modified="2021-03-17T12:39:56.464Z" agent="5.0 (X11; Linux x86_64) AppleWebKit/537.36 (KHTML, like Gecko) Chrome/87.0.4280.141 Safari/537.36" etag="9aI1CLLXiyrVwal09L0t" version="14.4.8" type="github">
  <diagram id="-LbnbQZDqSw-Q82pbEsy" name="Page-1">
    <mxGraphModel dx="4063" dy="2380" grid="1" gridSize="10" guides="1" tooltips="1" connect="1" arrows="1" fold="1" page="1" pageScale="1" pageWidth="2000" pageHeight="2000" math="0" shadow="0">
      <root>
        <mxCell id="0" />
        <mxCell id="1" parent="0" />
        <mxCell id="5JLHlAP0-xMZ3rETB1Fd-1" value="HTMLElement" style="swimlane;fontStyle=0;childLayout=stackLayout;horizontal=1;startSize=26;fillColor=none;horizontalStack=0;resizeParent=1;resizeParentMax=0;resizeLast=0;collapsible=1;marginBottom=0;" vertex="1" parent="1">
          <mxGeometry x="1205" y="20" width="200" height="138" as="geometry" />
        </mxCell>
        <mxCell id="5JLHlAP0-xMZ3rETB1Fd-2" value="- $classPrefix: string" style="text;strokeColor=none;fillColor=none;align=left;verticalAlign=top;spacingLeft=4;spacingRight=4;overflow=hidden;rotatable=0;points=[[0,0.5],[1,0.5]];portConstraint=eastwest;" vertex="1" parent="5JLHlAP0-xMZ3rETB1Fd-1">
          <mxGeometry y="26" width="200" height="26" as="geometry" />
        </mxCell>
        <mxCell id="5JLHlAP0-xMZ3rETB1Fd-18" value="" style="line;strokeWidth=1;fillColor=none;align=left;verticalAlign=middle;spacingTop=-1;spacingLeft=3;spacingRight=3;rotatable=0;labelPosition=right;points=[];portConstraint=eastwest;" vertex="1" parent="5JLHlAP0-xMZ3rETB1Fd-1">
          <mxGeometry y="52" width="200" height="8" as="geometry" />
        </mxCell>
        <mxCell id="5JLHlAP0-xMZ3rETB1Fd-3" value="+ __construct(string):" style="text;strokeColor=none;fillColor=none;align=left;verticalAlign=top;spacingLeft=4;spacingRight=4;overflow=hidden;rotatable=0;points=[[0,0.5],[1,0.5]];portConstraint=eastwest;" vertex="1" parent="5JLHlAP0-xMZ3rETB1Fd-1">
          <mxGeometry y="60" width="200" height="26" as="geometry" />
        </mxCell>
        <mxCell id="5JLHlAP0-xMZ3rETB1Fd-4" value="# prefixClass(string): string" style="text;strokeColor=none;fillColor=none;align=left;verticalAlign=top;spacingLeft=4;spacingRight=4;overflow=hidden;rotatable=0;points=[[0,0.5],[1,0.5]];portConstraint=eastwest;" vertex="1" parent="5JLHlAP0-xMZ3rETB1Fd-1">
          <mxGeometry y="86" width="200" height="26" as="geometry" />
        </mxCell>
        <mxCell id="5JLHlAP0-xMZ3rETB1Fd-5" value="+ toHTML(): string" style="text;strokeColor=none;fillColor=none;align=left;verticalAlign=top;spacingLeft=4;spacingRight=4;overflow=hidden;rotatable=0;points=[[0,0.5],[1,0.5]];portConstraint=eastwest;" vertex="1" parent="5JLHlAP0-xMZ3rETB1Fd-1">
          <mxGeometry y="112" width="200" height="26" as="geometry" />
        </mxCell>
        <mxCell id="5JLHlAP0-xMZ3rETB1Fd-43" style="edgeStyle=orthogonalEdgeStyle;rounded=0;orthogonalLoop=1;jettySize=auto;html=1;endArrow=block;endFill=0;" edge="1" parent="1" source="5JLHlAP0-xMZ3rETB1Fd-6" target="5JLHlAP0-xMZ3rETB1Fd-1">
          <mxGeometry relative="1" as="geometry">
            <Array as="points">
              <mxPoint x="1805" y="200" />
              <mxPoint x="1305" y="200" />
            </Array>
          </mxGeometry>
        </mxCell>
        <mxCell id="5JLHlAP0-xMZ3rETB1Fd-6" value="Field" style="swimlane;fontStyle=2;childLayout=stackLayout;horizontal=1;startSize=26;fillColor=none;horizontalStack=0;resizeParent=1;resizeParentMax=0;resizeLast=0;collapsible=1;marginBottom=0;" vertex="1" parent="1">
          <mxGeometry x="1645" y="240" width="340" height="580" as="geometry" />
        </mxCell>
        <mxCell id="5JLHlAP0-xMZ3rETB1Fd-7" value="- $name: string" style="text;strokeColor=none;fillColor=none;align=left;verticalAlign=top;spacingLeft=4;spacingRight=4;overflow=hidden;rotatable=0;points=[[0,0.5],[1,0.5]];portConstraint=eastwest;" vertex="1" parent="5JLHlAP0-xMZ3rETB1Fd-6">
          <mxGeometry y="26" width="340" height="26" as="geometry" />
        </mxCell>
        <mxCell id="5JLHlAP0-xMZ3rETB1Fd-8" value="- $value: string" style="text;strokeColor=none;fillColor=none;align=left;verticalAlign=top;spacingLeft=4;spacingRight=4;overflow=hidden;rotatable=0;points=[[0,0.5],[1,0.5]];portConstraint=eastwest;" vertex="1" parent="5JLHlAP0-xMZ3rETB1Fd-6">
          <mxGeometry y="52" width="340" height="26" as="geometry" />
        </mxCell>
        <mxCell id="5JLHlAP0-xMZ3rETB1Fd-9" value="- $type: string" style="text;strokeColor=none;fillColor=none;align=left;verticalAlign=top;spacingLeft=4;spacingRight=4;overflow=hidden;rotatable=0;points=[[0,0.5],[1,0.5]];portConstraint=eastwest;" vertex="1" parent="5JLHlAP0-xMZ3rETB1Fd-6">
          <mxGeometry y="78" width="340" height="26" as="geometry" />
        </mxCell>
        <mxCell id="5JLHlAP0-xMZ3rETB1Fd-10" value="- $labelText: string" style="text;strokeColor=none;fillColor=none;align=left;verticalAlign=top;spacingLeft=4;spacingRight=4;overflow=hidden;rotatable=0;points=[[0,0.5],[1,0.5]];portConstraint=eastwest;" vertex="1" parent="5JLHlAP0-xMZ3rETB1Fd-6">
          <mxGeometry y="104" width="340" height="26" as="geometry" />
        </mxCell>
        <mxCell id="5JLHlAP0-xMZ3rETB1Fd-11" value="- $classPrefix: string" style="text;strokeColor=none;fillColor=none;align=left;verticalAlign=top;spacingLeft=4;spacingRight=4;overflow=hidden;rotatable=0;points=[[0,0.5],[1,0.5]];portConstraint=eastwest;" vertex="1" parent="5JLHlAP0-xMZ3rETB1Fd-6">
          <mxGeometry y="130" width="340" height="26" as="geometry" />
        </mxCell>
        <mxCell id="5JLHlAP0-xMZ3rETB1Fd-12" value="- $refillOnFailedPost: bool" style="text;strokeColor=none;fillColor=none;align=left;verticalAlign=top;spacingLeft=4;spacingRight=4;overflow=hidden;rotatable=0;points=[[0,0.5],[1,0.5]];portConstraint=eastwest;" vertex="1" parent="5JLHlAP0-xMZ3rETB1Fd-6">
          <mxGeometry y="156" width="340" height="26" as="geometry" />
        </mxCell>
        <mxCell id="5JLHlAP0-xMZ3rETB1Fd-13" value="- $mustVerify: bool" style="text;strokeColor=none;fillColor=none;align=left;verticalAlign=top;spacingLeft=4;spacingRight=4;overflow=hidden;rotatable=0;points=[[0,0.5],[1,0.5]];portConstraint=eastwest;" vertex="1" parent="5JLHlAP0-xMZ3rETB1Fd-6">
          <mxGeometry y="182" width="340" height="26" as="geometry" />
        </mxCell>
        <mxCell id="5JLHlAP0-xMZ3rETB1Fd-19" value="" style="line;strokeWidth=1;fillColor=none;align=left;verticalAlign=middle;spacingTop=-1;spacingLeft=3;spacingRight=3;rotatable=0;labelPosition=right;points=[];portConstraint=eastwest;" vertex="1" parent="5JLHlAP0-xMZ3rETB1Fd-6">
          <mxGeometry y="208" width="340" height="8" as="geometry" />
        </mxCell>
        <mxCell id="5JLHlAP0-xMZ3rETB1Fd-15" value="+ __construct(string, string, string, string, ?string, bool, bool):" style="text;strokeColor=none;fillColor=none;align=left;verticalAlign=top;spacingLeft=4;spacingRight=4;overflow=hidden;rotatable=0;points=[[0,0.5],[1,0.5]];portConstraint=eastwest;" vertex="1" parent="5JLHlAP0-xMZ3rETB1Fd-6">
          <mxGeometry y="216" width="340" height="26" as="geometry" />
        </mxCell>
        <mxCell id="5JLHlAP0-xMZ3rETB1Fd-14" value="- wrapInLabel(string): string" style="text;strokeColor=none;fillColor=none;align=left;verticalAlign=top;spacingLeft=4;spacingRight=4;overflow=hidden;rotatable=0;points=[[0,0.5],[1,0.5]];portConstraint=eastwest;" vertex="1" parent="5JLHlAP0-xMZ3rETB1Fd-6">
          <mxGeometry y="242" width="340" height="26" as="geometry" />
        </mxCell>
        <mxCell id="5JLHlAP0-xMZ3rETB1Fd-17" value="- wrapInSpan(string): string" style="text;strokeColor=none;fillColor=none;align=left;verticalAlign=top;spacingLeft=4;spacingRight=4;overflow=hidden;rotatable=0;points=[[0,0.5],[1,0.5]];portConstraint=eastwest;" vertex="1" parent="5JLHlAP0-xMZ3rETB1Fd-6">
          <mxGeometry y="268" width="340" height="26" as="geometry" />
        </mxCell>
        <mxCell id="5JLHlAP0-xMZ3rETB1Fd-20" value="- getFieldClasses(array): string" style="text;strokeColor=none;fillColor=none;align=left;verticalAlign=top;spacingLeft=4;spacingRight=4;overflow=hidden;rotatable=0;points=[[0,0.5],[1,0.5]];portConstraint=eastwest;" vertex="1" parent="5JLHlAP0-xMZ3rETB1Fd-6">
          <mxGeometry y="294" width="340" height="26" as="geometry" />
        </mxCell>
        <mxCell id="5JLHlAP0-xMZ3rETB1Fd-22" value="- formatTextarea(): string" style="text;strokeColor=none;fillColor=none;align=left;verticalAlign=top;spacingLeft=4;spacingRight=4;overflow=hidden;rotatable=0;points=[[0,0.5],[1,0.5]];portConstraint=eastwest;" vertex="1" parent="5JLHlAP0-xMZ3rETB1Fd-6">
          <mxGeometry y="320" width="340" height="26" as="geometry" />
        </mxCell>
        <mxCell id="5JLHlAP0-xMZ3rETB1Fd-21" value="- formatUnlabledInput(): string" style="text;strokeColor=none;fillColor=none;align=left;verticalAlign=top;spacingLeft=4;spacingRight=4;overflow=hidden;rotatable=0;points=[[0,0.5],[1,0.5]];portConstraint=eastwest;" vertex="1" parent="5JLHlAP0-xMZ3rETB1Fd-6">
          <mxGeometry y="346" width="340" height="26" as="geometry" />
        </mxCell>
        <mxCell id="5JLHlAP0-xMZ3rETB1Fd-16" value="- formatInput(): string" style="text;strokeColor=none;fillColor=none;align=left;verticalAlign=top;spacingLeft=4;spacingRight=4;overflow=hidden;rotatable=0;points=[[0,0.5],[1,0.5]];portConstraint=eastwest;" vertex="1" parent="5JLHlAP0-xMZ3rETB1Fd-6">
          <mxGeometry y="372" width="340" height="26" as="geometry" />
        </mxCell>
        <mxCell id="5JLHlAP0-xMZ3rETB1Fd-24" value="+ validateField(): ?string" style="text;strokeColor=none;fillColor=none;align=left;verticalAlign=top;spacingLeft=4;spacingRight=4;overflow=hidden;rotatable=0;points=[[0,0.5],[1,0.5]];portConstraint=eastwest;" vertex="1" parent="5JLHlAP0-xMZ3rETB1Fd-6">
          <mxGeometry y="398" width="340" height="26" as="geometry" />
        </mxCell>
        <mxCell id="5JLHlAP0-xMZ3rETB1Fd-23" value="+ toHTML(): string" style="text;strokeColor=none;fillColor=none;align=left;verticalAlign=top;spacingLeft=4;spacingRight=4;overflow=hidden;rotatable=0;points=[[0,0.5],[1,0.5]];portConstraint=eastwest;" vertex="1" parent="5JLHlAP0-xMZ3rETB1Fd-6">
          <mxGeometry y="424" width="340" height="26" as="geometry" />
        </mxCell>
        <mxCell id="5JLHlAP0-xMZ3rETB1Fd-27" value="+ getName(): string" style="text;strokeColor=none;fillColor=none;align=left;verticalAlign=top;spacingLeft=4;spacingRight=4;overflow=hidden;rotatable=0;points=[[0,0.5],[1,0.5]];portConstraint=eastwest;" vertex="1" parent="5JLHlAP0-xMZ3rETB1Fd-6">
          <mxGeometry y="450" width="340" height="26" as="geometry" />
        </mxCell>
        <mxCell id="5JLHlAP0-xMZ3rETB1Fd-26" value="+ getValue(): string" style="text;strokeColor=none;fillColor=none;align=left;verticalAlign=top;spacingLeft=4;spacingRight=4;overflow=hidden;rotatable=0;points=[[0,0.5],[1,0.5]];portConstraint=eastwest;" vertex="1" parent="5JLHlAP0-xMZ3rETB1Fd-6">
          <mxGeometry y="476" width="340" height="26" as="geometry" />
        </mxCell>
        <mxCell id="5JLHlAP0-xMZ3rETB1Fd-28" value="+ getType(): string" style="text;strokeColor=none;fillColor=none;align=left;verticalAlign=top;spacingLeft=4;spacingRight=4;overflow=hidden;rotatable=0;points=[[0,0.5],[1,0.5]];portConstraint=eastwest;" vertex="1" parent="5JLHlAP0-xMZ3rETB1Fd-6">
          <mxGeometry y="502" width="340" height="26" as="geometry" />
        </mxCell>
        <mxCell id="5JLHlAP0-xMZ3rETB1Fd-29" value="+ getRefillOnFailedPost(): bool" style="text;strokeColor=none;fillColor=none;align=left;verticalAlign=top;spacingLeft=4;spacingRight=4;overflow=hidden;rotatable=0;points=[[0,0.5],[1,0.5]];portConstraint=eastwest;" vertex="1" parent="5JLHlAP0-xMZ3rETB1Fd-6">
          <mxGeometry y="528" width="340" height="26" as="geometry" />
        </mxCell>
        <mxCell id="5JLHlAP0-xMZ3rETB1Fd-25" value="+ getMustVerify(): bool" style="text;strokeColor=none;fillColor=none;align=left;verticalAlign=top;spacingLeft=4;spacingRight=4;overflow=hidden;rotatable=0;points=[[0,0.5],[1,0.5]];portConstraint=eastwest;" vertex="1" parent="5JLHlAP0-xMZ3rETB1Fd-6">
          <mxGeometry y="554" width="340" height="26" as="geometry" />
        </mxCell>
        <mxCell id="5JLHlAP0-xMZ3rETB1Fd-42" style="edgeStyle=orthogonalEdgeStyle;rounded=0;orthogonalLoop=1;jettySize=auto;html=1;endArrow=block;endFill=0;" edge="1" parent="1" source="5JLHlAP0-xMZ3rETB1Fd-30" target="5JLHlAP0-xMZ3rETB1Fd-1">
          <mxGeometry relative="1" as="geometry">
            <Array as="points">
              <mxPoint x="1150" y="200" />
              <mxPoint x="1305" y="200" />
            </Array>
          </mxGeometry>
        </mxCell>
        <mxCell id="5JLHlAP0-xMZ3rETB1Fd-30" value="Form" style="swimlane;fontStyle=2;childLayout=stackLayout;horizontal=1;startSize=26;fillColor=none;horizontalStack=0;resizeParent=1;resizeParentMax=0;resizeLast=0;collapsible=1;marginBottom=0;" vertex="1" parent="1">
          <mxGeometry x="1055" y="240" width="190" height="294" as="geometry" />
        </mxCell>
        <mxCell id="5JLHlAP0-xMZ3rETB1Fd-31" value="# $fields: array" style="text;strokeColor=none;fillColor=none;align=left;verticalAlign=top;spacingLeft=4;spacingRight=4;overflow=hidden;rotatable=0;points=[[0,0.5],[1,0.5]];portConstraint=eastwest;" vertex="1" parent="5JLHlAP0-xMZ3rETB1Fd-30">
          <mxGeometry y="26" width="190" height="26" as="geometry" />
        </mxCell>
        <mxCell id="5JLHlAP0-xMZ3rETB1Fd-32" value="- $error: string" style="text;strokeColor=none;fillColor=none;align=left;verticalAlign=top;spacingLeft=4;spacingRight=4;overflow=hidden;rotatable=0;points=[[0,0.5],[1,0.5]];portConstraint=eastwest;" vertex="1" parent="5JLHlAP0-xMZ3rETB1Fd-30">
          <mxGeometry y="52" width="190" height="26" as="geometry" />
        </mxCell>
        <mxCell id="5JLHlAP0-xMZ3rETB1Fd-33" value="- $userError: bool" style="text;strokeColor=none;fillColor=none;align=left;verticalAlign=top;spacingLeft=4;spacingRight=4;overflow=hidden;rotatable=0;points=[[0,0.5],[1,0.5]];portConstraint=eastwest;" vertex="1" parent="5JLHlAP0-xMZ3rETB1Fd-30">
          <mxGeometry y="78" width="190" height="26" as="geometry" />
        </mxCell>
        <mxCell id="5JLHlAP0-xMZ3rETB1Fd-34" value="- $submit: Field" style="text;strokeColor=none;fillColor=none;align=left;verticalAlign=top;spacingLeft=4;spacingRight=4;overflow=hidden;rotatable=0;points=[[0,0.5],[1,0.5]];portConstraint=eastwest;" vertex="1" parent="5JLHlAP0-xMZ3rETB1Fd-30">
          <mxGeometry y="104" width="190" height="26" as="geometry" />
        </mxCell>
        <mxCell id="5JLHlAP0-xMZ3rETB1Fd-36" value="" style="line;strokeWidth=1;fillColor=none;align=left;verticalAlign=middle;spacingTop=-1;spacingLeft=3;spacingRight=3;rotatable=0;labelPosition=right;points=[];portConstraint=eastwest;" vertex="1" parent="5JLHlAP0-xMZ3rETB1Fd-30">
          <mxGeometry y="130" width="190" height="8" as="geometry" />
        </mxCell>
        <mxCell id="5JLHlAP0-xMZ3rETB1Fd-35" value="+ __construct(array, Field, string):" style="text;strokeColor=none;fillColor=none;align=left;verticalAlign=top;spacingLeft=4;spacingRight=4;overflow=hidden;rotatable=0;points=[[0,0.5],[1,0.5]];portConstraint=eastwest;" vertex="1" parent="5JLHlAP0-xMZ3rETB1Fd-30">
          <mxGeometry y="138" width="190" height="26" as="geometry" />
        </mxCell>
        <mxCell id="5JLHlAP0-xMZ3rETB1Fd-37" value="# validateFields(): bool" style="text;strokeColor=none;fillColor=none;align=left;verticalAlign=top;spacingLeft=4;spacingRight=4;overflow=hidden;rotatable=0;points=[[0,0.5],[1,0.5]];portConstraint=eastwest;" vertex="1" parent="5JLHlAP0-xMZ3rETB1Fd-30">
          <mxGeometry y="164" width="190" height="26" as="geometry" />
        </mxCell>
        <mxCell id="5JLHlAP0-xMZ3rETB1Fd-39" value="# validate(): ?object" style="text;strokeColor=none;fillColor=none;align=left;verticalAlign=top;spacingLeft=4;spacingRight=4;overflow=hidden;rotatable=0;points=[[0,0.5],[1,0.5]];portConstraint=eastwest;fontStyle=2" vertex="1" parent="5JLHlAP0-xMZ3rETB1Fd-30">
          <mxGeometry y="190" width="190" height="26" as="geometry" />
        </mxCell>
        <mxCell id="5JLHlAP0-xMZ3rETB1Fd-40" value="+ toHTML(): string" style="text;strokeColor=none;fillColor=none;align=left;verticalAlign=top;spacingLeft=4;spacingRight=4;overflow=hidden;rotatable=0;points=[[0,0.5],[1,0.5]];portConstraint=eastwest;" vertex="1" parent="5JLHlAP0-xMZ3rETB1Fd-30">
          <mxGeometry y="216" width="190" height="26" as="geometry" />
        </mxCell>
        <mxCell id="5JLHlAP0-xMZ3rETB1Fd-38" value="# setError(string, bool): void" style="text;strokeColor=none;fillColor=none;align=left;verticalAlign=top;spacingLeft=4;spacingRight=4;overflow=hidden;rotatable=0;points=[[0,0.5],[1,0.5]];portConstraint=eastwest;" vertex="1" parent="5JLHlAP0-xMZ3rETB1Fd-30">
          <mxGeometry y="242" width="190" height="26" as="geometry" />
        </mxCell>
        <mxCell id="5JLHlAP0-xMZ3rETB1Fd-41" value="+ getError(): string" style="text;strokeColor=none;fillColor=none;align=left;verticalAlign=top;spacingLeft=4;spacingRight=4;overflow=hidden;rotatable=0;points=[[0,0.5],[1,0.5]];portConstraint=eastwest;" vertex="1" parent="5JLHlAP0-xMZ3rETB1Fd-30">
          <mxGeometry y="268" width="190" height="26" as="geometry" />
        </mxCell>
        <mxCell id="5JLHlAP0-xMZ3rETB1Fd-78" style="edgeStyle=orthogonalEdgeStyle;rounded=0;orthogonalLoop=1;jettySize=auto;html=1;endArrow=block;endFill=0;" edge="1" parent="1" source="5JLHlAP0-xMZ3rETB1Fd-44" target="5JLHlAP0-xMZ3rETB1Fd-30">
          <mxGeometry relative="1" as="geometry">
            <Array as="points">
              <mxPoint x="420" y="570" />
              <mxPoint x="1150" y="570" />
            </Array>
          </mxGeometry>
        </mxCell>
        <mxCell id="5JLHlAP0-xMZ3rETB1Fd-44" value="UserProfileForm" style="swimlane;fontStyle=2;childLayout=stackLayout;horizontal=1;startSize=26;fillColor=none;horizontalStack=0;resizeParent=1;resizeParentMax=0;resizeLast=0;collapsible=1;marginBottom=0;" vertex="1" parent="1">
          <mxGeometry x="345" y="608" width="150" height="52" as="geometry" />
        </mxCell>
        <mxCell id="5JLHlAP0-xMZ3rETB1Fd-45" value="# validateAvatar(): string" style="text;strokeColor=none;fillColor=none;align=left;verticalAlign=top;spacingLeft=4;spacingRight=4;overflow=hidden;rotatable=0;points=[[0,0.5],[1,0.5]];portConstraint=eastwest;fontStyle=2" vertex="1" parent="5JLHlAP0-xMZ3rETB1Fd-44">
          <mxGeometry y="26" width="150" height="26" as="geometry" />
        </mxCell>
        <mxCell id="5JLHlAP0-xMZ3rETB1Fd-57" style="edgeStyle=orthogonalEdgeStyle;rounded=0;orthogonalLoop=1;jettySize=auto;html=1;endArrow=block;endFill=0;" edge="1" parent="1" source="5JLHlAP0-xMZ3rETB1Fd-48" target="5JLHlAP0-xMZ3rETB1Fd-44">
          <mxGeometry relative="1" as="geometry">
            <Array as="points">
              <mxPoint x="60" y="678" />
              <mxPoint x="420" y="678" />
            </Array>
          </mxGeometry>
        </mxCell>
        <mxCell id="5JLHlAP0-xMZ3rETB1Fd-181" style="edgeStyle=orthogonalEdgeStyle;rounded=0;orthogonalLoop=1;jettySize=auto;html=1;dashed=1;endArrow=open;endFill=0;" edge="1" parent="1" source="5JLHlAP0-xMZ3rETB1Fd-48" target="5JLHlAP0-xMZ3rETB1Fd-159">
          <mxGeometry relative="1" as="geometry">
            <Array as="points">
              <mxPoint x="115" y="920" />
              <mxPoint x="615" y="920" />
            </Array>
          </mxGeometry>
        </mxCell>
        <mxCell id="5JLHlAP0-xMZ3rETB1Fd-48" value="UserProfileSetupForm" style="swimlane;fontStyle=0;childLayout=stackLayout;horizontal=1;startSize=26;fillColor=none;horizontalStack=0;resizeParent=1;resizeParentMax=0;resizeLast=0;collapsible=1;marginBottom=0;" vertex="1" parent="1">
          <mxGeometry x="15" y="708" width="200" height="78" as="geometry" />
        </mxCell>
        <mxCell id="5JLHlAP0-xMZ3rETB1Fd-49" value="+ __construct(string):" style="text;strokeColor=none;fillColor=none;align=left;verticalAlign=top;spacingLeft=4;spacingRight=4;overflow=hidden;rotatable=0;points=[[0,0.5],[1,0.5]];portConstraint=eastwest;" vertex="1" parent="5JLHlAP0-xMZ3rETB1Fd-48">
          <mxGeometry y="26" width="200" height="26" as="geometry" />
        </mxCell>
        <mxCell id="5JLHlAP0-xMZ3rETB1Fd-50" value="+ validate(?Manager): ?UserProfile" style="text;strokeColor=none;fillColor=none;align=left;verticalAlign=top;spacingLeft=4;spacingRight=4;overflow=hidden;rotatable=0;points=[[0,0.5],[1,0.5]];portConstraint=eastwest;" vertex="1" parent="5JLHlAP0-xMZ3rETB1Fd-48">
          <mxGeometry y="52" width="200" height="26" as="geometry" />
        </mxCell>
        <mxCell id="5JLHlAP0-xMZ3rETB1Fd-56" style="edgeStyle=orthogonalEdgeStyle;rounded=0;orthogonalLoop=1;jettySize=auto;html=1;endArrow=block;endFill=0;" edge="1" parent="1" source="5JLHlAP0-xMZ3rETB1Fd-52" target="5JLHlAP0-xMZ3rETB1Fd-44">
          <mxGeometry relative="1" as="geometry">
            <Array as="points">
              <mxPoint x="375" y="678" />
              <mxPoint x="420" y="678" />
            </Array>
          </mxGeometry>
        </mxCell>
        <mxCell id="5JLHlAP0-xMZ3rETB1Fd-182" style="edgeStyle=orthogonalEdgeStyle;rounded=0;orthogonalLoop=1;jettySize=auto;html=1;dashed=1;endArrow=open;endFill=0;" edge="1" parent="1" source="5JLHlAP0-xMZ3rETB1Fd-52" target="5JLHlAP0-xMZ3rETB1Fd-159">
          <mxGeometry relative="1" as="geometry">
            <Array as="points">
              <mxPoint x="365" y="920" />
              <mxPoint x="615" y="920" />
            </Array>
          </mxGeometry>
        </mxCell>
        <mxCell id="5JLHlAP0-xMZ3rETB1Fd-52" value="UserProfileEditForm" style="swimlane;fontStyle=0;childLayout=stackLayout;horizontal=1;startSize=26;fillColor=none;horizontalStack=0;resizeParent=1;resizeParentMax=0;resizeLast=0;collapsible=1;marginBottom=0;" vertex="1" parent="1">
          <mxGeometry x="235" y="708" width="260" height="104" as="geometry" />
        </mxCell>
        <mxCell id="5JLHlAP0-xMZ3rETB1Fd-53" value="+ fromID(int, ?Manager): UserProfileEditForm" style="text;strokeColor=none;fillColor=none;align=left;verticalAlign=top;spacingLeft=4;spacingRight=4;overflow=hidden;rotatable=0;points=[[0,0.5],[1,0.5]];portConstraint=eastwest;fontStyle=4" vertex="1" parent="5JLHlAP0-xMZ3rETB1Fd-52">
          <mxGeometry y="26" width="260" height="26" as="geometry" />
        </mxCell>
        <mxCell id="5JLHlAP0-xMZ3rETB1Fd-54" value="+ __constructs(UserProfile, string):" style="text;strokeColor=none;fillColor=none;align=left;verticalAlign=top;spacingLeft=4;spacingRight=4;overflow=hidden;rotatable=0;points=[[0,0.5],[1,0.5]];portConstraint=eastwest;" vertex="1" parent="5JLHlAP0-xMZ3rETB1Fd-52">
          <mxGeometry y="52" width="260" height="26" as="geometry" />
        </mxCell>
        <mxCell id="5JLHlAP0-xMZ3rETB1Fd-55" value="+ validate(?Manager): ?UserProfile" style="text;strokeColor=none;fillColor=none;align=left;verticalAlign=top;spacingLeft=4;spacingRight=4;overflow=hidden;rotatable=0;points=[[0,0.5],[1,0.5]];portConstraint=eastwest;" vertex="1" parent="5JLHlAP0-xMZ3rETB1Fd-52">
          <mxGeometry y="78" width="260" height="26" as="geometry" />
        </mxCell>
        <mxCell id="5JLHlAP0-xMZ3rETB1Fd-178" style="edgeStyle=orthogonalEdgeStyle;rounded=0;orthogonalLoop=1;jettySize=auto;html=1;endArrow=block;endFill=0;" edge="1" parent="1" source="5JLHlAP0-xMZ3rETB1Fd-58" target="5JLHlAP0-xMZ3rETB1Fd-30">
          <mxGeometry relative="1" as="geometry">
            <Array as="points">
              <mxPoint x="635" y="570" />
              <mxPoint x="1150" y="570" />
            </Array>
          </mxGeometry>
        </mxCell>
        <mxCell id="5JLHlAP0-xMZ3rETB1Fd-183" style="edgeStyle=orthogonalEdgeStyle;rounded=0;orthogonalLoop=1;jettySize=auto;html=1;entryX=0.5;entryY=0;entryDx=0;entryDy=0;dashed=1;endArrow=open;endFill=0;" edge="1" parent="1" source="5JLHlAP0-xMZ3rETB1Fd-58" target="5JLHlAP0-xMZ3rETB1Fd-142">
          <mxGeometry relative="1" as="geometry">
            <Array as="points">
              <mxPoint x="635" y="880" />
              <mxPoint x="940" y="880" />
            </Array>
          </mxGeometry>
        </mxCell>
        <mxCell id="5JLHlAP0-xMZ3rETB1Fd-58" value="UserRegisterForm" style="swimlane;fontStyle=0;childLayout=stackLayout;horizontal=1;startSize=26;fillColor=none;horizontalStack=0;resizeParent=1;resizeParentMax=0;resizeLast=0;collapsible=1;marginBottom=0;" vertex="1" parent="1">
          <mxGeometry x="545" y="600" width="180" height="78" as="geometry" />
        </mxCell>
        <mxCell id="5JLHlAP0-xMZ3rETB1Fd-59" value="+ __construct(string):" style="text;strokeColor=none;fillColor=none;align=left;verticalAlign=top;spacingLeft=4;spacingRight=4;overflow=hidden;rotatable=0;points=[[0,0.5],[1,0.5]];portConstraint=eastwest;" vertex="1" parent="5JLHlAP0-xMZ3rETB1Fd-58">
          <mxGeometry y="26" width="180" height="26" as="geometry" />
        </mxCell>
        <mxCell id="5JLHlAP0-xMZ3rETB1Fd-60" value="+ validate(?Manager): ?User" style="text;strokeColor=none;fillColor=none;align=left;verticalAlign=top;spacingLeft=4;spacingRight=4;overflow=hidden;rotatable=0;points=[[0,0.5],[1,0.5]];portConstraint=eastwest;" vertex="1" parent="5JLHlAP0-xMZ3rETB1Fd-58">
          <mxGeometry y="52" width="180" height="26" as="geometry" />
        </mxCell>
        <mxCell id="5JLHlAP0-xMZ3rETB1Fd-177" style="edgeStyle=orthogonalEdgeStyle;rounded=0;orthogonalLoop=1;jettySize=auto;html=1;endArrow=block;endFill=0;" edge="1" parent="1" source="5JLHlAP0-xMZ3rETB1Fd-62" target="5JLHlAP0-xMZ3rETB1Fd-30">
          <mxGeometry relative="1" as="geometry">
            <Array as="points">
              <mxPoint x="840" y="570" />
              <mxPoint x="1150" y="570" />
            </Array>
          </mxGeometry>
        </mxCell>
        <mxCell id="5JLHlAP0-xMZ3rETB1Fd-184" style="edgeStyle=orthogonalEdgeStyle;rounded=0;orthogonalLoop=1;jettySize=auto;html=1;entryX=0.5;entryY=0;entryDx=0;entryDy=0;dashed=1;endArrow=open;endFill=0;" edge="1" parent="1" source="5JLHlAP0-xMZ3rETB1Fd-62" target="5JLHlAP0-xMZ3rETB1Fd-142">
          <mxGeometry relative="1" as="geometry">
            <Array as="points">
              <mxPoint x="840" y="880" />
              <mxPoint x="940" y="880" />
            </Array>
          </mxGeometry>
        </mxCell>
        <mxCell id="5JLHlAP0-xMZ3rETB1Fd-62" value="UserLoginForm" style="swimlane;fontStyle=0;childLayout=stackLayout;horizontal=1;startSize=26;fillColor=none;horizontalStack=0;resizeParent=1;resizeParentMax=0;resizeLast=0;collapsible=1;marginBottom=0;" vertex="1" parent="1">
          <mxGeometry x="755" y="600" width="170" height="78" as="geometry" />
        </mxCell>
        <mxCell id="5JLHlAP0-xMZ3rETB1Fd-63" value="+ __construct(string):" style="text;strokeColor=none;fillColor=none;align=left;verticalAlign=top;spacingLeft=4;spacingRight=4;overflow=hidden;rotatable=0;points=[[0,0.5],[1,0.5]];portConstraint=eastwest;" vertex="1" parent="5JLHlAP0-xMZ3rETB1Fd-62">
          <mxGeometry y="26" width="170" height="26" as="geometry" />
        </mxCell>
        <mxCell id="5JLHlAP0-xMZ3rETB1Fd-64" value="+ valdiate(?Manager): ?User" style="text;strokeColor=none;fillColor=none;align=left;verticalAlign=top;spacingLeft=4;spacingRight=4;overflow=hidden;rotatable=0;points=[[0,0.5],[1,0.5]];portConstraint=eastwest;" vertex="1" parent="5JLHlAP0-xMZ3rETB1Fd-62">
          <mxGeometry y="52" width="170" height="26" as="geometry" />
        </mxCell>
        <mxCell id="5JLHlAP0-xMZ3rETB1Fd-82" style="edgeStyle=orthogonalEdgeStyle;rounded=0;orthogonalLoop=1;jettySize=auto;html=1;endArrow=block;endFill=0;" edge="1" parent="1" source="5JLHlAP0-xMZ3rETB1Fd-66" target="5JLHlAP0-xMZ3rETB1Fd-30">
          <mxGeometry relative="1" as="geometry">
            <Array as="points">
              <mxPoint x="1285" y="570" />
              <mxPoint x="1150" y="570" />
            </Array>
          </mxGeometry>
        </mxCell>
        <mxCell id="5JLHlAP0-xMZ3rETB1Fd-186" style="edgeStyle=orthogonalEdgeStyle;rounded=0;orthogonalLoop=1;jettySize=auto;html=1;dashed=1;endArrow=open;endFill=0;" edge="1" parent="1" source="5JLHlAP0-xMZ3rETB1Fd-66" target="5JLHlAP0-xMZ3rETB1Fd-118">
          <mxGeometry relative="1" as="geometry">
            <Array as="points">
              <mxPoint x="1245" y="840" />
              <mxPoint x="1370" y="840" />
            </Array>
          </mxGeometry>
        </mxCell>
        <mxCell id="5JLHlAP0-xMZ3rETB1Fd-66" value="CluckForm" style="swimlane;fontStyle=0;childLayout=stackLayout;horizontal=1;startSize=26;fillColor=none;horizontalStack=0;resizeParent=1;resizeParentMax=0;resizeLast=0;collapsible=1;marginBottom=0;" vertex="1" parent="1">
          <mxGeometry x="1155" y="600" width="180" height="78" as="geometry" />
        </mxCell>
        <mxCell id="5JLHlAP0-xMZ3rETB1Fd-67" value="+ __construct(string):" style="text;strokeColor=none;fillColor=none;align=left;verticalAlign=top;spacingLeft=4;spacingRight=4;overflow=hidden;rotatable=0;points=[[0,0.5],[1,0.5]];portConstraint=eastwest;" vertex="1" parent="5JLHlAP0-xMZ3rETB1Fd-66">
          <mxGeometry y="26" width="180" height="26" as="geometry" />
        </mxCell>
        <mxCell id="5JLHlAP0-xMZ3rETB1Fd-68" value="+ validate(?Manager): ?Cluck" style="text;strokeColor=none;fillColor=none;align=left;verticalAlign=top;spacingLeft=4;spacingRight=4;overflow=hidden;rotatable=0;points=[[0,0.5],[1,0.5]];portConstraint=eastwest;" vertex="1" parent="5JLHlAP0-xMZ3rETB1Fd-66">
          <mxGeometry y="52" width="180" height="26" as="geometry" />
        </mxCell>
        <mxCell id="5JLHlAP0-xMZ3rETB1Fd-176" style="edgeStyle=orthogonalEdgeStyle;rounded=0;orthogonalLoop=1;jettySize=auto;html=1;endArrow=block;endFill=0;" edge="1" parent="1" source="5JLHlAP0-xMZ3rETB1Fd-70" target="5JLHlAP0-xMZ3rETB1Fd-30">
          <mxGeometry relative="1" as="geometry">
            <Array as="points">
              <mxPoint x="1035" y="570" />
              <mxPoint x="1150" y="570" />
            </Array>
          </mxGeometry>
        </mxCell>
        <mxCell id="5JLHlAP0-xMZ3rETB1Fd-185" style="edgeStyle=orthogonalEdgeStyle;rounded=0;orthogonalLoop=1;jettySize=auto;html=1;entryX=0.5;entryY=0;entryDx=0;entryDy=0;dashed=1;endArrow=open;endFill=0;" edge="1" parent="1" source="5JLHlAP0-xMZ3rETB1Fd-70" target="5JLHlAP0-xMZ3rETB1Fd-118">
          <mxGeometry relative="1" as="geometry">
            <Array as="points">
              <mxPoint x="1035" y="840" />
              <mxPoint x="1370" y="840" />
            </Array>
          </mxGeometry>
        </mxCell>
        <mxCell id="5JLHlAP0-xMZ3rETB1Fd-70" value="CluckEditForm" style="swimlane;fontStyle=0;childLayout=stackLayout;horizontal=1;startSize=26;fillColor=none;horizontalStack=0;resizeParent=1;resizeParentMax=0;resizeLast=0;collapsible=1;marginBottom=0;" vertex="1" parent="1">
          <mxGeometry x="945" y="600" width="180" height="78" as="geometry" />
        </mxCell>
        <mxCell id="5JLHlAP0-xMZ3rETB1Fd-71" value="+ __construct(string):" style="text;strokeColor=none;fillColor=none;align=left;verticalAlign=top;spacingLeft=4;spacingRight=4;overflow=hidden;rotatable=0;points=[[0,0.5],[1,0.5]];portConstraint=eastwest;" vertex="1" parent="5JLHlAP0-xMZ3rETB1Fd-70">
          <mxGeometry y="26" width="180" height="26" as="geometry" />
        </mxCell>
        <mxCell id="5JLHlAP0-xMZ3rETB1Fd-72" value="+ validate(?Manager): ?Cluck" style="text;strokeColor=none;fillColor=none;align=left;verticalAlign=top;spacingLeft=4;spacingRight=4;overflow=hidden;rotatable=0;points=[[0,0.5],[1,0.5]];portConstraint=eastwest;" vertex="1" parent="5JLHlAP0-xMZ3rETB1Fd-70">
          <mxGeometry y="52" width="180" height="26" as="geometry" />
        </mxCell>
        <mxCell id="5JLHlAP0-xMZ3rETB1Fd-175" style="edgeStyle=orthogonalEdgeStyle;rounded=0;orthogonalLoop=1;jettySize=auto;html=1;endArrow=block;endFill=0;" edge="1" parent="1" source="5JLHlAP0-xMZ3rETB1Fd-74" target="5JLHlAP0-xMZ3rETB1Fd-30">
          <mxGeometry relative="1" as="geometry">
            <Array as="points">
              <mxPoint x="1490" y="570" />
              <mxPoint x="1150" y="570" />
            </Array>
          </mxGeometry>
        </mxCell>
        <mxCell id="5JLHlAP0-xMZ3rETB1Fd-187" style="edgeStyle=orthogonalEdgeStyle;rounded=0;orthogonalLoop=1;jettySize=auto;html=1;dashed=1;endArrow=open;endFill=0;" edge="1" parent="1" source="5JLHlAP0-xMZ3rETB1Fd-74" target="5JLHlAP0-xMZ3rETB1Fd-118">
          <mxGeometry relative="1" as="geometry">
            <Array as="points">
              <mxPoint x="1490" y="840" />
              <mxPoint x="1370" y="840" />
            </Array>
          </mxGeometry>
        </mxCell>
        <mxCell id="5JLHlAP0-xMZ3rETB1Fd-74" value="CluckReplyForm" style="swimlane;fontStyle=0;childLayout=stackLayout;horizontal=1;startSize=26;fillColor=none;horizontalStack=0;resizeParent=1;resizeParentMax=0;resizeLast=0;collapsible=1;marginBottom=0;" vertex="1" parent="1">
          <mxGeometry x="1365" y="600" width="250" height="104" as="geometry" />
        </mxCell>
        <mxCell id="5JLHlAP0-xMZ3rETB1Fd-75" value="+ fromID(int, ?Manager): CluckReplyForm" style="text;strokeColor=none;fillColor=none;align=left;verticalAlign=top;spacingLeft=4;spacingRight=4;overflow=hidden;rotatable=0;points=[[0,0.5],[1,0.5]];portConstraint=eastwest;" vertex="1" parent="5JLHlAP0-xMZ3rETB1Fd-74">
          <mxGeometry y="26" width="250" height="26" as="geometry" />
        </mxCell>
        <mxCell id="5JLHlAP0-xMZ3rETB1Fd-76" value="+ __construct(Cluck, string):" style="text;strokeColor=none;fillColor=none;align=left;verticalAlign=top;spacingLeft=4;spacingRight=4;overflow=hidden;rotatable=0;points=[[0,0.5],[1,0.5]];portConstraint=eastwest;" vertex="1" parent="5JLHlAP0-xMZ3rETB1Fd-74">
          <mxGeometry y="52" width="250" height="26" as="geometry" />
        </mxCell>
        <mxCell id="5JLHlAP0-xMZ3rETB1Fd-77" value="+ validate(?Manager): ?Cluck" style="text;strokeColor=none;fillColor=none;align=left;verticalAlign=top;spacingLeft=4;spacingRight=4;overflow=hidden;rotatable=0;points=[[0,0.5],[1,0.5]];portConstraint=eastwest;" vertex="1" parent="5JLHlAP0-xMZ3rETB1Fd-74">
          <mxGeometry y="78" width="250" height="26" as="geometry" />
        </mxCell>
        <mxCell id="5JLHlAP0-xMZ3rETB1Fd-191" style="edgeStyle=orthogonalEdgeStyle;rounded=0;orthogonalLoop=1;jettySize=auto;html=1;dashed=1;endArrow=open;endFill=0;" edge="1" parent="1" source="5JLHlAP0-xMZ3rETB1Fd-84" target="5JLHlAP0-xMZ3rETB1Fd-159">
          <mxGeometry relative="1" as="geometry">
            <Array as="points">
              <mxPoint x="615" y="1740" />
            </Array>
          </mxGeometry>
        </mxCell>
        <mxCell id="5JLHlAP0-xMZ3rETB1Fd-193" style="edgeStyle=orthogonalEdgeStyle;rounded=0;orthogonalLoop=1;jettySize=auto;html=1;dashed=1;endArrow=open;endFill=0;" edge="1" parent="1" source="5JLHlAP0-xMZ3rETB1Fd-84" target="5JLHlAP0-xMZ3rETB1Fd-142">
          <mxGeometry relative="1" as="geometry">
            <Array as="points">
              <mxPoint x="1105" y="1630" />
              <mxPoint x="1105" y="1172" />
            </Array>
          </mxGeometry>
        </mxCell>
        <mxCell id="5JLHlAP0-xMZ3rETB1Fd-194" style="edgeStyle=orthogonalEdgeStyle;rounded=0;orthogonalLoop=1;jettySize=auto;html=1;dashed=1;endArrow=open;endFill=0;" edge="1" parent="1" source="5JLHlAP0-xMZ3rETB1Fd-84" target="5JLHlAP0-xMZ3rETB1Fd-118">
          <mxGeometry relative="1" as="geometry" />
        </mxCell>
        <mxCell id="5JLHlAP0-xMZ3rETB1Fd-84" value="Manager" style="swimlane;fontStyle=0;childLayout=stackLayout;horizontal=1;startSize=26;fillColor=none;horizontalStack=0;resizeParent=1;resizeParentMax=0;resizeLast=0;collapsible=1;marginBottom=0;" vertex="1" parent="1">
          <mxGeometry x="1615" y="960" width="370" height="814" as="geometry" />
        </mxCell>
        <mxCell id="5JLHlAP0-xMZ3rETB1Fd-85" value="- $connection: mysqli" style="text;strokeColor=none;fillColor=none;align=left;verticalAlign=top;spacingLeft=4;spacingRight=4;overflow=hidden;rotatable=0;points=[[0,0.5],[1,0.5]];portConstraint=eastwest;" vertex="1" parent="5JLHlAP0-xMZ3rETB1Fd-84">
          <mxGeometry y="26" width="370" height="26" as="geometry" />
        </mxCell>
        <mxCell id="5JLHlAP0-xMZ3rETB1Fd-86" value="- $pageLimit" style="text;strokeColor=none;fillColor=none;align=left;verticalAlign=top;spacingLeft=4;spacingRight=4;overflow=hidden;rotatable=0;points=[[0,0.5],[1,0.5]];portConstraint=eastwest;" vertex="1" parent="5JLHlAP0-xMZ3rETB1Fd-84">
          <mxGeometry y="52" width="370" height="26" as="geometry" />
        </mxCell>
        <mxCell id="5JLHlAP0-xMZ3rETB1Fd-88" value="" style="line;strokeWidth=1;fillColor=none;align=left;verticalAlign=middle;spacingTop=-1;spacingLeft=3;spacingRight=3;rotatable=0;labelPosition=right;points=[];portConstraint=eastwest;" vertex="1" parent="5JLHlAP0-xMZ3rETB1Fd-84">
          <mxGeometry y="78" width="370" height="8" as="geometry" />
        </mxCell>
        <mxCell id="5JLHlAP0-xMZ3rETB1Fd-87" value="+ __construct(int):" style="text;strokeColor=none;fillColor=none;align=left;verticalAlign=top;spacingLeft=4;spacingRight=4;overflow=hidden;rotatable=0;points=[[0,0.5],[1,0.5]];portConstraint=eastwest;" vertex="1" parent="5JLHlAP0-xMZ3rETB1Fd-84">
          <mxGeometry y="86" width="370" height="26" as="geometry" />
        </mxCell>
        <mxCell id="5JLHlAP0-xMZ3rETB1Fd-92" value="- stripTages(string): string" style="text;strokeColor=none;fillColor=none;align=left;verticalAlign=top;spacingLeft=4;spacingRight=4;overflow=hidden;rotatable=0;points=[[0,0.5],[1,0.5]];portConstraint=eastwest;" vertex="1" parent="5JLHlAP0-xMZ3rETB1Fd-84">
          <mxGeometry y="112" width="370" height="26" as="geometry" />
        </mxCell>
        <mxCell id="5JLHlAP0-xMZ3rETB1Fd-96" value="- checkDuplicateKey(string): bool" style="text;strokeColor=none;fillColor=none;align=left;verticalAlign=top;spacingLeft=4;spacingRight=4;overflow=hidden;rotatable=0;points=[[0,0.5],[1,0.5]];portConstraint=eastwest;" vertex="1" parent="5JLHlAP0-xMZ3rETB1Fd-84">
          <mxGeometry y="138" width="370" height="26" as="geometry" />
        </mxCell>
        <mxCell id="5JLHlAP0-xMZ3rETB1Fd-94" value="+ createUser(string, string, int): ?User" style="text;strokeColor=none;fillColor=none;align=left;verticalAlign=top;spacingLeft=4;spacingRight=4;overflow=hidden;rotatable=0;points=[[0,0.5],[1,0.5]];portConstraint=eastwest;" vertex="1" parent="5JLHlAP0-xMZ3rETB1Fd-84">
          <mxGeometry y="164" width="370" height="26" as="geometry" />
        </mxCell>
        <mxCell id="5JLHlAP0-xMZ3rETB1Fd-100" value="+ getUser(int): ?User" style="text;strokeColor=none;fillColor=none;align=left;verticalAlign=top;spacingLeft=4;spacingRight=4;overflow=hidden;rotatable=0;points=[[0,0.5],[1,0.5]];portConstraint=eastwest;" vertex="1" parent="5JLHlAP0-xMZ3rETB1Fd-84">
          <mxGeometry y="190" width="370" height="26" as="geometry" />
        </mxCell>
        <mxCell id="5JLHlAP0-xMZ3rETB1Fd-99" value="+ getLatestUsers(int): array" style="text;strokeColor=none;fillColor=none;align=left;verticalAlign=top;spacingLeft=4;spacingRight=4;overflow=hidden;rotatable=0;points=[[0,0.5],[1,0.5]];portConstraint=eastwest;" vertex="1" parent="5JLHlAP0-xMZ3rETB1Fd-84">
          <mxGeometry y="216" width="370" height="26" as="geometry" />
        </mxCell>
        <mxCell id="5JLHlAP0-xMZ3rETB1Fd-98" value="+ getUserFromEmail(string): ?User" style="text;strokeColor=none;fillColor=none;align=left;verticalAlign=top;spacingLeft=4;spacingRight=4;overflow=hidden;rotatable=0;points=[[0,0.5],[1,0.5]];portConstraint=eastwest;" vertex="1" parent="5JLHlAP0-xMZ3rETB1Fd-84">
          <mxGeometry y="242" width="370" height="26" as="geometry" />
        </mxCell>
        <mxCell id="5JLHlAP0-xMZ3rETB1Fd-97" value="+ getUserFromURL(string): ?User" style="text;strokeColor=none;fillColor=none;align=left;verticalAlign=top;spacingLeft=4;spacingRight=4;overflow=hidden;rotatable=0;points=[[0,0.5],[1,0.5]];portConstraint=eastwest;" vertex="1" parent="5JLHlAP0-xMZ3rETB1Fd-84">
          <mxGeometry y="268" width="370" height="26" as="geometry" />
        </mxCell>
        <mxCell id="5JLHlAP0-xMZ3rETB1Fd-95" value="+ getUserReplyCount(int): int" style="text;strokeColor=none;fillColor=none;align=left;verticalAlign=top;spacingLeft=4;spacingRight=4;overflow=hidden;rotatable=0;points=[[0,0.5],[1,0.5]];portConstraint=eastwest;" vertex="1" parent="5JLHlAP0-xMZ3rETB1Fd-84">
          <mxGeometry y="294" width="370" height="26" as="geometry" />
        </mxCell>
        <mxCell id="5JLHlAP0-xMZ3rETB1Fd-93" value="+ getUserPostCount(int): int" style="text;strokeColor=none;fillColor=none;align=left;verticalAlign=top;spacingLeft=4;spacingRight=4;overflow=hidden;rotatable=0;points=[[0,0.5],[1,0.5]];portConstraint=eastwest;" vertex="1" parent="5JLHlAP0-xMZ3rETB1Fd-84">
          <mxGeometry y="320" width="370" height="26" as="geometry" />
        </mxCell>
        <mxCell id="5JLHlAP0-xMZ3rETB1Fd-91" value="+ createUserProfile(int, string, string, string, string): ?UserProfile" style="text;strokeColor=none;fillColor=none;align=left;verticalAlign=top;spacingLeft=4;spacingRight=4;overflow=hidden;rotatable=0;points=[[0,0.5],[1,0.5]];portConstraint=eastwest;" vertex="1" parent="5JLHlAP0-xMZ3rETB1Fd-84">
          <mxGeometry y="346" width="370" height="26" as="geometry" />
        </mxCell>
        <mxCell id="5JLHlAP0-xMZ3rETB1Fd-101" value="+ updateUserProfile(int, string, string, string, string): ?UserProfile" style="text;strokeColor=none;fillColor=none;align=left;verticalAlign=top;spacingLeft=4;spacingRight=4;overflow=hidden;rotatable=0;points=[[0,0.5],[1,0.5]];portConstraint=eastwest;" vertex="1" parent="5JLHlAP0-xMZ3rETB1Fd-84">
          <mxGeometry y="372" width="370" height="26" as="geometry" />
        </mxCell>
        <mxCell id="5JLHlAP0-xMZ3rETB1Fd-104" value="+ getUserProfile(int): ?UserProfile" style="text;strokeColor=none;fillColor=none;align=left;verticalAlign=top;spacingLeft=4;spacingRight=4;overflow=hidden;rotatable=0;points=[[0,0.5],[1,0.5]];portConstraint=eastwest;" vertex="1" parent="5JLHlAP0-xMZ3rETB1Fd-84">
          <mxGeometry y="398" width="370" height="26" as="geometry" />
        </mxCell>
        <mxCell id="5JLHlAP0-xMZ3rETB1Fd-107" value="+ createReply(int, int): bool" style="text;strokeColor=none;fillColor=none;align=left;verticalAlign=top;spacingLeft=4;spacingRight=4;overflow=hidden;rotatable=0;points=[[0,0.5],[1,0.5]];portConstraint=eastwest;" vertex="1" parent="5JLHlAP0-xMZ3rETB1Fd-84">
          <mxGeometry y="424" width="370" height="26" as="geometry" />
        </mxCell>
        <mxCell id="5JLHlAP0-xMZ3rETB1Fd-103" value="+ createCluck(int, string, string, int): ?Cluck" style="text;strokeColor=none;fillColor=none;align=left;verticalAlign=top;spacingLeft=4;spacingRight=4;overflow=hidden;rotatable=0;points=[[0,0.5],[1,0.5]];portConstraint=eastwest;" vertex="1" parent="5JLHlAP0-xMZ3rETB1Fd-84">
          <mxGeometry y="450" width="370" height="26" as="geometry" />
        </mxCell>
        <mxCell id="5JLHlAP0-xMZ3rETB1Fd-106" value="+ deleteCluck(int): bool" style="text;strokeColor=none;fillColor=none;align=left;verticalAlign=top;spacingLeft=4;spacingRight=4;overflow=hidden;rotatable=0;points=[[0,0.5],[1,0.5]];portConstraint=eastwest;" vertex="1" parent="5JLHlAP0-xMZ3rETB1Fd-84">
          <mxGeometry y="476" width="370" height="26" as="geometry" />
        </mxCell>
        <mxCell id="5JLHlAP0-xMZ3rETB1Fd-105" value="+ updateCluck(int, string, string, string): ?Cluck" style="text;strokeColor=none;fillColor=none;align=left;verticalAlign=top;spacingLeft=4;spacingRight=4;overflow=hidden;rotatable=0;points=[[0,0.5],[1,0.5]];portConstraint=eastwest;" vertex="1" parent="5JLHlAP0-xMZ3rETB1Fd-84">
          <mxGeometry y="502" width="370" height="26" as="geometry" />
        </mxCell>
        <mxCell id="5JLHlAP0-xMZ3rETB1Fd-102" value="+ getCluck(int): ?Cluck" style="text;strokeColor=none;fillColor=none;align=left;verticalAlign=top;spacingLeft=4;spacingRight=4;overflow=hidden;rotatable=0;points=[[0,0.5],[1,0.5]];portConstraint=eastwest;" vertex="1" parent="5JLHlAP0-xMZ3rETB1Fd-84">
          <mxGeometry y="528" width="370" height="26" as="geometry" />
        </mxCell>
        <mxCell id="5JLHlAP0-xMZ3rETB1Fd-108" value="+ getCluckFromURL(string): ?Cluck" style="text;strokeColor=none;fillColor=none;align=left;verticalAlign=top;spacingLeft=4;spacingRight=4;overflow=hidden;rotatable=0;points=[[0,0.5],[1,0.5]];portConstraint=eastwest;" vertex="1" parent="5JLHlAP0-xMZ3rETB1Fd-84">
          <mxGeometry y="554" width="370" height="26" as="geometry" />
        </mxCell>
        <mxCell id="5JLHlAP0-xMZ3rETB1Fd-110" value="+ isReply(int): bool" style="text;strokeColor=none;fillColor=none;align=left;verticalAlign=top;spacingLeft=4;spacingRight=4;overflow=hidden;rotatable=0;points=[[0,0.5],[1,0.5]];portConstraint=eastwest;" vertex="1" parent="5JLHlAP0-xMZ3rETB1Fd-84">
          <mxGeometry y="580" width="370" height="26" as="geometry" />
        </mxCell>
        <mxCell id="5JLHlAP0-xMZ3rETB1Fd-111" value="+ getRepliedCluck(int): ?Cluck" style="text;strokeColor=none;fillColor=none;align=left;verticalAlign=top;spacingLeft=4;spacingRight=4;overflow=hidden;rotatable=0;points=[[0,0.5],[1,0.5]];portConstraint=eastwest;" vertex="1" parent="5JLHlAP0-xMZ3rETB1Fd-84">
          <mxGeometry y="606" width="370" height="26" as="geometry" />
        </mxCell>
        <mxCell id="5JLHlAP0-xMZ3rETB1Fd-113" value="+ getReplyCount(int): int" style="text;strokeColor=none;fillColor=none;align=left;verticalAlign=top;spacingLeft=4;spacingRight=4;overflow=hidden;rotatable=0;points=[[0,0.5],[1,0.5]];portConstraint=eastwest;" vertex="1" parent="5JLHlAP0-xMZ3rETB1Fd-84">
          <mxGeometry y="632" width="370" height="26" as="geometry" />
        </mxCell>
        <mxCell id="5JLHlAP0-xMZ3rETB1Fd-109" value="+ getCluckReplies(int, int): int" style="text;strokeColor=none;fillColor=none;align=left;verticalAlign=top;spacingLeft=4;spacingRight=4;overflow=hidden;rotatable=0;points=[[0,0.5],[1,0.5]];portConstraint=eastwest;" vertex="1" parent="5JLHlAP0-xMZ3rETB1Fd-84">
          <mxGeometry y="658" width="370" height="26" as="geometry" />
        </mxCell>
        <mxCell id="5JLHlAP0-xMZ3rETB1Fd-114" value="+ getLatestClucks(int): array" style="text;strokeColor=none;fillColor=none;align=left;verticalAlign=top;spacingLeft=4;spacingRight=4;overflow=hidden;rotatable=0;points=[[0,0.5],[1,0.5]];portConstraint=eastwest;" vertex="1" parent="5JLHlAP0-xMZ3rETB1Fd-84">
          <mxGeometry y="684" width="370" height="26" as="geometry" />
        </mxCell>
        <mxCell id="5JLHlAP0-xMZ3rETB1Fd-115" value="+ getHotClucks(int): array" style="text;strokeColor=none;fillColor=none;align=left;verticalAlign=top;spacingLeft=4;spacingRight=4;overflow=hidden;rotatable=0;points=[[0,0.5],[1,0.5]];portConstraint=eastwest;" vertex="1" parent="5JLHlAP0-xMZ3rETB1Fd-84">
          <mxGeometry y="710" width="370" height="26" as="geometry" />
        </mxCell>
        <mxCell id="5JLHlAP0-xMZ3rETB1Fd-116" value="+ getTopClucks(int): array" style="text;strokeColor=none;fillColor=none;align=left;verticalAlign=top;spacingLeft=4;spacingRight=4;overflow=hidden;rotatable=0;points=[[0,0.5],[1,0.5]];portConstraint=eastwest;" vertex="1" parent="5JLHlAP0-xMZ3rETB1Fd-84">
          <mxGeometry y="736" width="370" height="26" as="geometry" />
        </mxCell>
        <mxCell id="5JLHlAP0-xMZ3rETB1Fd-112" value="+ getUserClucks(int, int): array" style="text;strokeColor=none;fillColor=none;align=left;verticalAlign=top;spacingLeft=4;spacingRight=4;overflow=hidden;rotatable=0;points=[[0,0.5],[1,0.5]];portConstraint=eastwest;" vertex="1" parent="5JLHlAP0-xMZ3rETB1Fd-84">
          <mxGeometry y="762" width="370" height="26" as="geometry" />
        </mxCell>
        <mxCell id="5JLHlAP0-xMZ3rETB1Fd-117" value="+ __destruct():" style="text;strokeColor=none;fillColor=none;align=left;verticalAlign=top;spacingLeft=4;spacingRight=4;overflow=hidden;rotatable=0;points=[[0,0.5],[1,0.5]];portConstraint=eastwest;" vertex="1" parent="5JLHlAP0-xMZ3rETB1Fd-84">
          <mxGeometry y="788" width="370" height="26" as="geometry" />
        </mxCell>
        <mxCell id="5JLHlAP0-xMZ3rETB1Fd-118" value="Cluck" style="swimlane;fontStyle=0;childLayout=stackLayout;horizontal=1;startSize=26;fillColor=none;horizontalStack=0;resizeParent=1;resizeParentMax=0;resizeLast=0;collapsible=1;marginBottom=0;" vertex="1" parent="1">
          <mxGeometry x="1205" y="960" width="330" height="606" as="geometry" />
        </mxCell>
        <mxCell id="5JLHlAP0-xMZ3rETB1Fd-119" value="- $id: int" style="text;strokeColor=none;fillColor=none;align=left;verticalAlign=top;spacingLeft=4;spacingRight=4;overflow=hidden;rotatable=0;points=[[0,0.5],[1,0.5]];portConstraint=eastwest;" vertex="1" parent="5JLHlAP0-xMZ3rETB1Fd-118">
          <mxGeometry y="26" width="330" height="26" as="geometry" />
        </mxCell>
        <mxCell id="5JLHlAP0-xMZ3rETB1Fd-120" value="- $userID: int" style="text;strokeColor=none;fillColor=none;align=left;verticalAlign=top;spacingLeft=4;spacingRight=4;overflow=hidden;rotatable=0;points=[[0,0.5],[1,0.5]];portConstraint=eastwest;" vertex="1" parent="5JLHlAP0-xMZ3rETB1Fd-118">
          <mxGeometry y="52" width="330" height="26" as="geometry" />
        </mxCell>
        <mxCell id="5JLHlAP0-xMZ3rETB1Fd-123" value="- $title: string" style="text;strokeColor=none;fillColor=none;align=left;verticalAlign=top;spacingLeft=4;spacingRight=4;overflow=hidden;rotatable=0;points=[[0,0.5],[1,0.5]];portConstraint=eastwest;" vertex="1" parent="5JLHlAP0-xMZ3rETB1Fd-118">
          <mxGeometry y="78" width="330" height="26" as="geometry" />
        </mxCell>
        <mxCell id="5JLHlAP0-xMZ3rETB1Fd-124" value="- $content: string" style="text;strokeColor=none;fillColor=none;align=left;verticalAlign=top;spacingLeft=4;spacingRight=4;overflow=hidden;rotatable=0;points=[[0,0.5],[1,0.5]];portConstraint=eastwest;" vertex="1" parent="5JLHlAP0-xMZ3rETB1Fd-118">
          <mxGeometry y="104" width="330" height="26" as="geometry" />
        </mxCell>
        <mxCell id="5JLHlAP0-xMZ3rETB1Fd-125" value="- $url: string" style="text;strokeColor=none;fillColor=none;align=left;verticalAlign=top;spacingLeft=4;spacingRight=4;overflow=hidden;rotatable=0;points=[[0,0.5],[1,0.5]];portConstraint=eastwest;" vertex="1" parent="5JLHlAP0-xMZ3rETB1Fd-118">
          <mxGeometry y="130" width="330" height="26" as="geometry" />
        </mxCell>
        <mxCell id="5JLHlAP0-xMZ3rETB1Fd-128" value="- $postDate: DateTime" style="text;strokeColor=none;fillColor=none;align=left;verticalAlign=top;spacingLeft=4;spacingRight=4;overflow=hidden;rotatable=0;points=[[0,0.5],[1,0.5]];portConstraint=eastwest;" vertex="1" parent="5JLHlAP0-xMZ3rETB1Fd-118">
          <mxGeometry y="156" width="330" height="26" as="geometry" />
        </mxCell>
        <mxCell id="5JLHlAP0-xMZ3rETB1Fd-129" value="- $lastEdited: DateTime" style="text;strokeColor=none;fillColor=none;align=left;verticalAlign=top;spacingLeft=4;spacingRight=4;overflow=hidden;rotatable=0;points=[[0,0.5],[1,0.5]];portConstraint=eastwest;" vertex="1" parent="5JLHlAP0-xMZ3rETB1Fd-118">
          <mxGeometry y="182" width="330" height="26" as="geometry" />
        </mxCell>
        <mxCell id="5JLHlAP0-xMZ3rETB1Fd-130" value="" style="line;strokeWidth=1;fillColor=none;align=left;verticalAlign=middle;spacingTop=-1;spacingLeft=3;spacingRight=3;rotatable=0;labelPosition=right;points=[];portConstraint=eastwest;" vertex="1" parent="5JLHlAP0-xMZ3rETB1Fd-118">
          <mxGeometry y="208" width="330" height="8" as="geometry" />
        </mxCell>
        <mxCell id="5JLHlAP0-xMZ3rETB1Fd-127" value="+ fromAssoc(array): Cluck" style="text;strokeColor=none;fillColor=none;align=left;verticalAlign=top;spacingLeft=4;spacingRight=4;overflow=hidden;rotatable=0;points=[[0,0.5],[1,0.5]];portConstraint=eastwest;fontStyle=4" vertex="1" parent="5JLHlAP0-xMZ3rETB1Fd-118">
          <mxGeometry y="216" width="330" height="26" as="geometry" />
        </mxCell>
        <mxCell id="5JLHlAP0-xMZ3rETB1Fd-126" value="+ extendClucks(array): array" style="text;strokeColor=none;fillColor=none;align=left;verticalAlign=top;spacingLeft=4;spacingRight=4;overflow=hidden;rotatable=0;points=[[0,0.5],[1,0.5]];portConstraint=eastwest;fontStyle=4" vertex="1" parent="5JLHlAP0-xMZ3rETB1Fd-118">
          <mxGeometry y="242" width="330" height="26" as="geometry" />
        </mxCell>
        <mxCell id="5JLHlAP0-xMZ3rETB1Fd-122" value="+ __construct(int, int, string, string, string, string, ?string):" style="text;strokeColor=none;fillColor=none;align=left;verticalAlign=top;spacingLeft=4;spacingRight=4;overflow=hidden;rotatable=0;points=[[0,0.5],[1,0.5]];portConstraint=eastwest;" vertex="1" parent="5JLHlAP0-xMZ3rETB1Fd-118">
          <mxGeometry y="268" width="330" height="26" as="geometry" />
        </mxCell>
        <mxCell id="5JLHlAP0-xMZ3rETB1Fd-121" value="+ extend(?Manager, bool): array" style="text;strokeColor=none;fillColor=none;align=left;verticalAlign=top;spacingLeft=4;spacingRight=4;overflow=hidden;rotatable=0;points=[[0,0.5],[1,0.5]];portConstraint=eastwest;" vertex="1" parent="5JLHlAP0-xMZ3rETB1Fd-118">
          <mxGeometry y="294" width="330" height="26" as="geometry" />
        </mxCell>
        <mxCell id="5JLHlAP0-xMZ3rETB1Fd-131" value="+ getUser(?Manager): User" style="text;strokeColor=none;fillColor=none;align=left;verticalAlign=top;spacingLeft=4;spacingRight=4;overflow=hidden;rotatable=0;points=[[0,0.5],[1,0.5]];portConstraint=eastwest;" vertex="1" parent="5JLHlAP0-xMZ3rETB1Fd-118">
          <mxGeometry y="320" width="330" height="26" as="geometry" />
        </mxCell>
        <mxCell id="5JLHlAP0-xMZ3rETB1Fd-133" value="+ getUserProfile(?Manager): UserProfile" style="text;strokeColor=none;fillColor=none;align=left;verticalAlign=top;spacingLeft=4;spacingRight=4;overflow=hidden;rotatable=0;points=[[0,0.5],[1,0.5]];portConstraint=eastwest;" vertex="1" parent="5JLHlAP0-xMZ3rETB1Fd-118">
          <mxGeometry y="346" width="330" height="26" as="geometry" />
        </mxCell>
        <mxCell id="5JLHlAP0-xMZ3rETB1Fd-135" value="+ getRepliedCluck(int, ?Manager): ?Cluck" style="text;strokeColor=none;fillColor=none;align=left;verticalAlign=top;spacingLeft=4;spacingRight=4;overflow=hidden;rotatable=0;points=[[0,0.5],[1,0.5]];portConstraint=eastwest;" vertex="1" parent="5JLHlAP0-xMZ3rETB1Fd-118">
          <mxGeometry y="372" width="330" height="26" as="geometry" />
        </mxCell>
        <mxCell id="5JLHlAP0-xMZ3rETB1Fd-134" value="+ getAssoc(): array" style="text;strokeColor=none;fillColor=none;align=left;verticalAlign=top;spacingLeft=4;spacingRight=4;overflow=hidden;rotatable=0;points=[[0,0.5],[1,0.5]];portConstraint=eastwest;" vertex="1" parent="5JLHlAP0-xMZ3rETB1Fd-118">
          <mxGeometry y="398" width="330" height="26" as="geometry" />
        </mxCell>
        <mxCell id="5JLHlAP0-xMZ3rETB1Fd-136" value="+ getUrl(): string" style="text;strokeColor=none;fillColor=none;align=left;verticalAlign=top;spacingLeft=4;spacingRight=4;overflow=hidden;rotatable=0;points=[[0,0.5],[1,0.5]];portConstraint=eastwest;" vertex="1" parent="5JLHlAP0-xMZ3rETB1Fd-118">
          <mxGeometry y="424" width="330" height="26" as="geometry" />
        </mxCell>
        <mxCell id="5JLHlAP0-xMZ3rETB1Fd-139" value="+ getLink(): string" style="text;strokeColor=none;fillColor=none;align=left;verticalAlign=top;spacingLeft=4;spacingRight=4;overflow=hidden;rotatable=0;points=[[0,0.5],[1,0.5]];portConstraint=eastwest;" vertex="1" parent="5JLHlAP0-xMZ3rETB1Fd-118">
          <mxGeometry y="450" width="330" height="26" as="geometry" />
        </mxCell>
        <mxCell id="5JLHlAP0-xMZ3rETB1Fd-138" value="+ getPostDate(): int" style="text;strokeColor=none;fillColor=none;align=left;verticalAlign=top;spacingLeft=4;spacingRight=4;overflow=hidden;rotatable=0;points=[[0,0.5],[1,0.5]];portConstraint=eastwest;" vertex="1" parent="5JLHlAP0-xMZ3rETB1Fd-118">
          <mxGeometry y="476" width="330" height="26" as="geometry" />
        </mxCell>
        <mxCell id="5JLHlAP0-xMZ3rETB1Fd-137" value="+ getLastEdited(): ?int" style="text;strokeColor=none;fillColor=none;align=left;verticalAlign=top;spacingLeft=4;spacingRight=4;overflow=hidden;rotatable=0;points=[[0,0.5],[1,0.5]];portConstraint=eastwest;" vertex="1" parent="5JLHlAP0-xMZ3rETB1Fd-118">
          <mxGeometry y="502" width="330" height="26" as="geometry" />
        </mxCell>
        <mxCell id="5JLHlAP0-xMZ3rETB1Fd-132" value="+ getTitle(): string" style="text;strokeColor=none;fillColor=none;align=left;verticalAlign=top;spacingLeft=4;spacingRight=4;overflow=hidden;rotatable=0;points=[[0,0.5],[1,0.5]];portConstraint=eastwest;" vertex="1" parent="5JLHlAP0-xMZ3rETB1Fd-118">
          <mxGeometry y="528" width="330" height="26" as="geometry" />
        </mxCell>
        <mxCell id="5JLHlAP0-xMZ3rETB1Fd-140" value="+ getContent(): string" style="text;strokeColor=none;fillColor=none;align=left;verticalAlign=top;spacingLeft=4;spacingRight=4;overflow=hidden;rotatable=0;points=[[0,0.5],[1,0.5]];portConstraint=eastwest;" vertex="1" parent="5JLHlAP0-xMZ3rETB1Fd-118">
          <mxGeometry y="554" width="330" height="26" as="geometry" />
        </mxCell>
        <mxCell id="5JLHlAP0-xMZ3rETB1Fd-141" value="+ getID(): int" style="text;strokeColor=none;fillColor=none;align=left;verticalAlign=top;spacingLeft=4;spacingRight=4;overflow=hidden;rotatable=0;points=[[0,0.5],[1,0.5]];portConstraint=eastwest;" vertex="1" parent="5JLHlAP0-xMZ3rETB1Fd-118">
          <mxGeometry y="580" width="330" height="26" as="geometry" />
        </mxCell>
        <mxCell id="5JLHlAP0-xMZ3rETB1Fd-142" value="User" style="swimlane;fontStyle=0;childLayout=stackLayout;horizontal=1;startSize=26;fillColor=none;horizontalStack=0;resizeParent=1;resizeParentMax=0;resizeLast=0;collapsible=1;marginBottom=0;" vertex="1" parent="1">
          <mxGeometry x="825" y="960" width="230" height="424" as="geometry" />
        </mxCell>
        <mxCell id="5JLHlAP0-xMZ3rETB1Fd-143" value="- $id: int" style="text;strokeColor=none;fillColor=none;align=left;verticalAlign=top;spacingLeft=4;spacingRight=4;overflow=hidden;rotatable=0;points=[[0,0.5],[1,0.5]];portConstraint=eastwest;" vertex="1" parent="5JLHlAP0-xMZ3rETB1Fd-142">
          <mxGeometry y="26" width="230" height="26" as="geometry" />
        </mxCell>
        <mxCell id="5JLHlAP0-xMZ3rETB1Fd-144" value="- $email: string" style="text;strokeColor=none;fillColor=none;align=left;verticalAlign=top;spacingLeft=4;spacingRight=4;overflow=hidden;rotatable=0;points=[[0,0.5],[1,0.5]];portConstraint=eastwest;" vertex="1" parent="5JLHlAP0-xMZ3rETB1Fd-142">
          <mxGeometry y="52" width="230" height="26" as="geometry" />
        </mxCell>
        <mxCell id="5JLHlAP0-xMZ3rETB1Fd-146" value="- $passwordHash: string" style="text;strokeColor=none;fillColor=none;align=left;verticalAlign=top;spacingLeft=4;spacingRight=4;overflow=hidden;rotatable=0;points=[[0,0.5],[1,0.5]];portConstraint=eastwest;" vertex="1" parent="5JLHlAP0-xMZ3rETB1Fd-142">
          <mxGeometry y="78" width="230" height="26" as="geometry" />
        </mxCell>
        <mxCell id="5JLHlAP0-xMZ3rETB1Fd-149" value="- $url: string" style="text;strokeColor=none;fillColor=none;align=left;verticalAlign=top;spacingLeft=4;spacingRight=4;overflow=hidden;rotatable=0;points=[[0,0.5],[1,0.5]];portConstraint=eastwest;" vertex="1" parent="5JLHlAP0-xMZ3rETB1Fd-142">
          <mxGeometry y="104" width="230" height="26" as="geometry" />
        </mxCell>
        <mxCell id="5JLHlAP0-xMZ3rETB1Fd-156" value="" style="line;strokeWidth=1;fillColor=none;align=left;verticalAlign=middle;spacingTop=-1;spacingLeft=3;spacingRight=3;rotatable=0;labelPosition=right;points=[];portConstraint=eastwest;" vertex="1" parent="5JLHlAP0-xMZ3rETB1Fd-142">
          <mxGeometry y="130" width="230" height="8" as="geometry" />
        </mxCell>
        <mxCell id="5JLHlAP0-xMZ3rETB1Fd-151" value="+ fromAssoc(array): User" style="text;strokeColor=none;fillColor=none;align=left;verticalAlign=top;spacingLeft=4;spacingRight=4;overflow=hidden;rotatable=0;points=[[0,0.5],[1,0.5]];portConstraint=eastwest;fontStyle=4" vertex="1" parent="5JLHlAP0-xMZ3rETB1Fd-142">
          <mxGeometry y="138" width="230" height="26" as="geometry" />
        </mxCell>
        <mxCell id="5JLHlAP0-xMZ3rETB1Fd-147" value="+ extendUsers(array, ?Manager): array" style="text;strokeColor=none;fillColor=none;align=left;verticalAlign=top;spacingLeft=4;spacingRight=4;overflow=hidden;rotatable=0;points=[[0,0.5],[1,0.5]];portConstraint=eastwest;fontStyle=4" vertex="1" parent="5JLHlAP0-xMZ3rETB1Fd-142">
          <mxGeometry y="164" width="230" height="26" as="geometry" />
        </mxCell>
        <mxCell id="5JLHlAP0-xMZ3rETB1Fd-154" value="+ __construct(int, string, string, string):" style="text;strokeColor=none;fillColor=none;align=left;verticalAlign=top;spacingLeft=4;spacingRight=4;overflow=hidden;rotatable=0;points=[[0,0.5],[1,0.5]];portConstraint=eastwest;" vertex="1" parent="5JLHlAP0-xMZ3rETB1Fd-142">
          <mxGeometry y="190" width="230" height="26" as="geometry" />
        </mxCell>
        <mxCell id="5JLHlAP0-xMZ3rETB1Fd-155" value="+ authenticate(string): ?User" style="text;strokeColor=none;fillColor=none;align=left;verticalAlign=top;spacingLeft=4;spacingRight=4;overflow=hidden;rotatable=0;points=[[0,0.5],[1,0.5]];portConstraint=eastwest;" vertex="1" parent="5JLHlAP0-xMZ3rETB1Fd-142">
          <mxGeometry y="216" width="230" height="26" as="geometry" />
        </mxCell>
        <mxCell id="5JLHlAP0-xMZ3rETB1Fd-153" value="+ extend(?Manager): ?array" style="text;strokeColor=none;fillColor=none;align=left;verticalAlign=top;spacingLeft=4;spacingRight=4;overflow=hidden;rotatable=0;points=[[0,0.5],[1,0.5]];portConstraint=eastwest;" vertex="1" parent="5JLHlAP0-xMZ3rETB1Fd-142">
          <mxGeometry y="242" width="230" height="26" as="geometry" />
        </mxCell>
        <mxCell id="5JLHlAP0-xMZ3rETB1Fd-152" value="+ getProfile(?Manager): ?UserProfile" style="text;strokeColor=none;fillColor=none;align=left;verticalAlign=top;spacingLeft=4;spacingRight=4;overflow=hidden;rotatable=0;points=[[0,0.5],[1,0.5]];portConstraint=eastwest;" vertex="1" parent="5JLHlAP0-xMZ3rETB1Fd-142">
          <mxGeometry y="268" width="230" height="26" as="geometry" />
        </mxCell>
        <mxCell id="5JLHlAP0-xMZ3rETB1Fd-150" value="+ getAssoc(): array" style="text;strokeColor=none;fillColor=none;align=left;verticalAlign=top;spacingLeft=4;spacingRight=4;overflow=hidden;rotatable=0;points=[[0,0.5],[1,0.5]];portConstraint=eastwest;" vertex="1" parent="5JLHlAP0-xMZ3rETB1Fd-142">
          <mxGeometry y="294" width="230" height="26" as="geometry" />
        </mxCell>
        <mxCell id="5JLHlAP0-xMZ3rETB1Fd-157" value="+ getId(): int" style="text;strokeColor=none;fillColor=none;align=left;verticalAlign=top;spacingLeft=4;spacingRight=4;overflow=hidden;rotatable=0;points=[[0,0.5],[1,0.5]];portConstraint=eastwest;" vertex="1" parent="5JLHlAP0-xMZ3rETB1Fd-142">
          <mxGeometry y="320" width="230" height="26" as="geometry" />
        </mxCell>
        <mxCell id="5JLHlAP0-xMZ3rETB1Fd-158" value="+ getEmail(): string" style="text;strokeColor=none;fillColor=none;align=left;verticalAlign=top;spacingLeft=4;spacingRight=4;overflow=hidden;rotatable=0;points=[[0,0.5],[1,0.5]];portConstraint=eastwest;" vertex="1" parent="5JLHlAP0-xMZ3rETB1Fd-142">
          <mxGeometry y="346" width="230" height="26" as="geometry" />
        </mxCell>
        <mxCell id="5JLHlAP0-xMZ3rETB1Fd-148" value="+ getUrl(): string" style="text;strokeColor=none;fillColor=none;align=left;verticalAlign=top;spacingLeft=4;spacingRight=4;overflow=hidden;rotatable=0;points=[[0,0.5],[1,0.5]];portConstraint=eastwest;" vertex="1" parent="5JLHlAP0-xMZ3rETB1Fd-142">
          <mxGeometry y="372" width="230" height="26" as="geometry" />
        </mxCell>
        <mxCell id="5JLHlAP0-xMZ3rETB1Fd-145" value="+ getWebURL(): string" style="text;strokeColor=none;fillColor=none;align=left;verticalAlign=top;spacingLeft=4;spacingRight=4;overflow=hidden;rotatable=0;points=[[0,0.5],[1,0.5]];portConstraint=eastwest;" vertex="1" parent="5JLHlAP0-xMZ3rETB1Fd-142">
          <mxGeometry y="398" width="230" height="26" as="geometry" />
        </mxCell>
        <mxCell id="5JLHlAP0-xMZ3rETB1Fd-159" value="UserProfile" style="swimlane;fontStyle=0;childLayout=stackLayout;horizontal=1;startSize=26;fillColor=none;horizontalStack=0;resizeParent=1;resizeParentMax=0;resizeLast=0;collapsible=1;marginBottom=0;" vertex="1" parent="1">
          <mxGeometry x="485" y="960" width="260" height="398" as="geometry" />
        </mxCell>
        <mxCell id="5JLHlAP0-xMZ3rETB1Fd-160" value="- $userID: int" style="text;strokeColor=none;fillColor=none;align=left;verticalAlign=top;spacingLeft=4;spacingRight=4;overflow=hidden;rotatable=0;points=[[0,0.5],[1,0.5]];portConstraint=eastwest;" vertex="1" parent="5JLHlAP0-xMZ3rETB1Fd-159">
          <mxGeometry y="26" width="260" height="26" as="geometry" />
        </mxCell>
        <mxCell id="5JLHlAP0-xMZ3rETB1Fd-161" value="- $firstName: string" style="text;strokeColor=none;fillColor=none;align=left;verticalAlign=top;spacingLeft=4;spacingRight=4;overflow=hidden;rotatable=0;points=[[0,0.5],[1,0.5]];portConstraint=eastwest;" vertex="1" parent="5JLHlAP0-xMZ3rETB1Fd-159">
          <mxGeometry y="52" width="260" height="26" as="geometry" />
        </mxCell>
        <mxCell id="5JLHlAP0-xMZ3rETB1Fd-163" value="- $lastName: string" style="text;strokeColor=none;fillColor=none;align=left;verticalAlign=top;spacingLeft=4;spacingRight=4;overflow=hidden;rotatable=0;points=[[0,0.5],[1,0.5]];portConstraint=eastwest;" vertex="1" parent="5JLHlAP0-xMZ3rETB1Fd-159">
          <mxGeometry y="78" width="260" height="26" as="geometry" />
        </mxCell>
        <mxCell id="5JLHlAP0-xMZ3rETB1Fd-165" value="- $avatar: string" style="text;strokeColor=none;fillColor=none;align=left;verticalAlign=top;spacingLeft=4;spacingRight=4;overflow=hidden;rotatable=0;points=[[0,0.5],[1,0.5]];portConstraint=eastwest;" vertex="1" parent="5JLHlAP0-xMZ3rETB1Fd-159">
          <mxGeometry y="104" width="260" height="26" as="geometry" />
        </mxCell>
        <mxCell id="5JLHlAP0-xMZ3rETB1Fd-167" value="- $description: string" style="text;strokeColor=none;fillColor=none;align=left;verticalAlign=top;spacingLeft=4;spacingRight=4;overflow=hidden;rotatable=0;points=[[0,0.5],[1,0.5]];portConstraint=eastwest;" vertex="1" parent="5JLHlAP0-xMZ3rETB1Fd-159">
          <mxGeometry y="130" width="260" height="26" as="geometry" />
        </mxCell>
        <mxCell id="5JLHlAP0-xMZ3rETB1Fd-168" value="" style="line;strokeWidth=1;fillColor=none;align=left;verticalAlign=middle;spacingTop=-1;spacingLeft=3;spacingRight=3;rotatable=0;labelPosition=right;points=[];portConstraint=eastwest;" vertex="1" parent="5JLHlAP0-xMZ3rETB1Fd-159">
          <mxGeometry y="156" width="260" height="8" as="geometry" />
        </mxCell>
        <mxCell id="5JLHlAP0-xMZ3rETB1Fd-166" value="+ fromAssoc(array): UserProfile" style="text;strokeColor=none;fillColor=none;align=left;verticalAlign=top;spacingLeft=4;spacingRight=4;overflow=hidden;rotatable=0;points=[[0,0.5],[1,0.5]];portConstraint=eastwest;fontStyle=4" vertex="1" parent="5JLHlAP0-xMZ3rETB1Fd-159">
          <mxGeometry y="164" width="260" height="26" as="geometry" />
        </mxCell>
        <mxCell id="5JLHlAP0-xMZ3rETB1Fd-164" value="+ __construct(int, string, string, string, string):" style="text;strokeColor=none;fillColor=none;align=left;verticalAlign=top;spacingLeft=4;spacingRight=4;overflow=hidden;rotatable=0;points=[[0,0.5],[1,0.5]];portConstraint=eastwest;" vertex="1" parent="5JLHlAP0-xMZ3rETB1Fd-159">
          <mxGeometry y="190" width="260" height="26" as="geometry" />
        </mxCell>
        <mxCell id="5JLHlAP0-xMZ3rETB1Fd-169" value="+ getAssoc(): array" style="text;strokeColor=none;fillColor=none;align=left;verticalAlign=top;spacingLeft=4;spacingRight=4;overflow=hidden;rotatable=0;points=[[0,0.5],[1,0.5]];portConstraint=eastwest;" vertex="1" parent="5JLHlAP0-xMZ3rETB1Fd-159">
          <mxGeometry y="216" width="260" height="26" as="geometry" />
        </mxCell>
        <mxCell id="5JLHlAP0-xMZ3rETB1Fd-171" value="+ getUserID(): int" style="text;strokeColor=none;fillColor=none;align=left;verticalAlign=top;spacingLeft=4;spacingRight=4;overflow=hidden;rotatable=0;points=[[0,0.5],[1,0.5]];portConstraint=eastwest;" vertex="1" parent="5JLHlAP0-xMZ3rETB1Fd-159">
          <mxGeometry y="242" width="260" height="26" as="geometry" />
        </mxCell>
        <mxCell id="5JLHlAP0-xMZ3rETB1Fd-172" value="+ getFIrstName(): string" style="text;strokeColor=none;fillColor=none;align=left;verticalAlign=top;spacingLeft=4;spacingRight=4;overflow=hidden;rotatable=0;points=[[0,0.5],[1,0.5]];portConstraint=eastwest;" vertex="1" parent="5JLHlAP0-xMZ3rETB1Fd-159">
          <mxGeometry y="268" width="260" height="26" as="geometry" />
        </mxCell>
        <mxCell id="5JLHlAP0-xMZ3rETB1Fd-170" value="+ getLastName(): string" style="text;strokeColor=none;fillColor=none;align=left;verticalAlign=top;spacingLeft=4;spacingRight=4;overflow=hidden;rotatable=0;points=[[0,0.5],[1,0.5]];portConstraint=eastwest;" vertex="1" parent="5JLHlAP0-xMZ3rETB1Fd-159">
          <mxGeometry y="294" width="260" height="26" as="geometry" />
        </mxCell>
        <mxCell id="5JLHlAP0-xMZ3rETB1Fd-162" value="+ getFilePathAvatar(): string" style="text;strokeColor=none;fillColor=none;align=left;verticalAlign=top;spacingLeft=4;spacingRight=4;overflow=hidden;rotatable=0;points=[[0,0.5],[1,0.5]];portConstraint=eastwest;" vertex="1" parent="5JLHlAP0-xMZ3rETB1Fd-159">
          <mxGeometry y="320" width="260" height="26" as="geometry" />
        </mxCell>
        <mxCell id="5JLHlAP0-xMZ3rETB1Fd-174" value="+ getWebLinkAvatar(): string" style="text;strokeColor=none;fillColor=none;align=left;verticalAlign=top;spacingLeft=4;spacingRight=4;overflow=hidden;rotatable=0;points=[[0,0.5],[1,0.5]];portConstraint=eastwest;" vertex="1" parent="5JLHlAP0-xMZ3rETB1Fd-159">
          <mxGeometry y="346" width="260" height="26" as="geometry" />
        </mxCell>
        <mxCell id="5JLHlAP0-xMZ3rETB1Fd-173" value="+ getDescription(): string" style="text;strokeColor=none;fillColor=none;align=left;verticalAlign=top;spacingLeft=4;spacingRight=4;overflow=hidden;rotatable=0;points=[[0,0.5],[1,0.5]];portConstraint=eastwest;" vertex="1" parent="5JLHlAP0-xMZ3rETB1Fd-159">
          <mxGeometry y="372" width="260" height="26" as="geometry" />
        </mxCell>
      </root>
    </mxGraphModel>
  </diagram>
</mxfile>
